<svg
   width="100%"
   height="10vh"
   viewBox="0 0 160 30"
   version="1.1"
   id="svg1"
   xml:space="preserve"
   inkscape:version="1.4 (86a8ad7, 2024-10-11)"
   sodipodi:docname="plane.svg"
   xmlns:inkscape="http://www.inkscape.org/namespaces/inkscape"
   xmlns:sodipodi="http://sodipodi.sourceforge.net/DTD/sodipodi-0.dtd"
   xmlns="http://www.w3.org/2000/svg"
   xmlns:svg="http://www.w3.org/2000/svg"><sodipodi:namedview
     id="namedview1"
     pagecolor="#ffffff"
     bordercolor="#000000"
     borderopacity="0.25"
     inkscape:showpageshadow="2"
     inkscape:pageopacity="0.0"
     inkscape:pagecheckerboard="false"
     inkscape:deskcolor="#d1d1d1"
     inkscape:document-units="mm"
     inkscape:zoom="1.6507506"
     inkscape:cx="396.48631"
     inkscape:cy="318.94583"
     inkscape:window-width="3840"
     inkscape:window-height="2071"
     inkscape:window-x="3831"
     inkscape:window-y="-9"
     inkscape:window-maximized="1"
     inkscape:current-layer="svg1" /><defs
     id="defs1" /><g
     inkscape:label="Layer 1"
     inkscape:groupmode="layer"
     id="layer1"><g
       style="fill:#591123;fill-opacity:1"
       id="g2"
       transform="matrix(0.18477199,0,0,0.18477199,122.75545,-0.13613524)"><g
         id="g1"
         style="fill:#591123;fill-opacity:1">
	<path
   d="m 189.595,61.978 c -0.606,-10.244 -13.337,-17.159 -22.245,-18.29 -15.953,-2.024 -31.986,3.935 -46.092,10.925 -0.271,-0.157 -0.527,-0.325 -0.884,-0.41 C 101.261,49.683 81.018,47.72 61.541,45.267 52.724,44.156 32.986,39.409 27.019,49.437 21.31,59.03 42.19,74.508 52.763,80.236 44.467,83.377 36.439,87.374 29.317,92.661 25.741,90.036 19.437,89.207 15.222,88.156 11.499,87.228 4.762,85.175 1.359,87.978 c -3.174,2.614 0.009,7.604 1.501,10.263 1.601,2.852 3.973,7.261 6.928,9.805 -11.043,4.589 -13.924,21.201 1.247,22.353 10.656,0.808 21.094,-3.27 31.237,-5.982 20.501,-5.484 40.916,-11.281 61.338,-17.053 0.86,2.058 2.307,3.945 3.675,5.814 4.325,5.912 9.104,11.231 13.133,17.397 4.455,6.819 13.136,19.803 22.953,14.733 7.101,-3.667 7.006,-16.746 7.249,-23.315 0.347,-9.394 -0.182,-19.345 -1.851,-28.659 16.019,-2.053 41.902,-13.214 40.826,-31.356 z m -43.382,27.867 c -2.064,-0.457 -4.644,0.755 -4.397,3.253 1.341,13.538 3.509,27.972 0.373,41.402 -3.229,13.834 -16.077,-7.145 -19.169,-11.72 -4.462,-6.604 -12.478,-11.948 -16.157,-19.044 -0.149,-1.89 -1.679,-3.706 -4.025,-3.021 -18.621,5.439 -37.308,10.65 -56.012,15.794 -7.008,1.928 -14.081,3.68 -21.036,5.79 -1.94,0.57 -3.902,1.051 -5.887,1.438 -8.79,1.942 -12.964,-7.751 -6.17,-13.009 0.736,-0.57 0.775,-1.367 0.46,-2.055 0.175,-0.469 0.184,-1.009 -0.044,-1.45 -1.516,-2.941 -3.766,-5.701 -5.573,-8.479 -1.152,-1.771 -2.206,-3.607 -3.179,-5.481 -1.044,-2.01 -1.512,-2.107 0.511,-2.11 4.106,-0.006 8.433,1.647 12.288,2.896 2.856,0.925 6.111,2.721 9.181,3.033 0.586,0.464 1.379,0.65 2.117,0.189 9.099,-5.69 19.419,-8.869 29.061,-13.456 1.855,-0.882 1.575,-3.209 0.339,-4.388 C 58.816,79.219 58.707,79.021 58.556,78.846 50.882,69.973 37.699,64.661 32.94,53.351 c -2.061,-4.897 43.074,0.732 46.354,1.272 13.105,2.16 26.396,2.815 39.341,5.905 0.708,0.169 1.312,0.066 1.862,-0.134 0.808,0.839 1.956,1.295 3.275,0.807 8.663,-3.204 17.142,-6.556 26.172,-8.623 9.229,-2.113 31.6,-2.975 32.406,11.073 0.674,11.792 -25.963,23.183 -36.137,26.194 z"
   id="path1"
   style="fill:#591123;fill-opacity:1" />
</g></g><path
       style="fill:none;stroke:#591123;stroke-width:1.163;stroke-linecap:round;stroke-linejoin:miter;stroke-dasharray:3.489, 3.489;stroke-dashoffset:0"
       d="M 3.5261737,20.836481 C 20.035078,25.484619 95.687532,29.171074 95.847814,16.188343 96.008094,3.2056125 84.628169,0.96168375 77.736104,5.2892605 c -6.892068,4.327577 -4.327578,8.9757155 -3.045333,10.7388015 1.282245,1.763087 28.049109,7.69347 45.679979,3.846735"
       id="path2" /></g></svg>
